<?xml version="1.0" encoding="utf-8"?>
<!-- Generator: Adobe Illustrator 24.1.2, SVG Export Plug-In . SVG Version: 6.00 Build 0)  -->
<svg version="1.1" id="图层_1" xmlns="http://www.w3.org/2000/svg" xmlns:xlink="http://www.w3.org/1999/xlink" x="0px" y="0px"
	 viewBox="0 0 16 16" style="enable-background:new 0 0 16 16;" xml:space="preserve">
<style type="text/css">
	.st0{fill:#FFFFFF;}
	.st1{fill:#9699A3;}
	.st2{fill:#5A5D66;}
</style>
<rect x="0.5" y="0.5" class="st0" width="15" height="15"/>
<path class="st1" d="M15,1v14H1V1H15 M16,0H0v16h16V0z"/>
<g>
	<g>
		<g>
			<path class="st2" d="M12.5,10.3c0.3,0,0.5,0.2,0.5,0.6c0,0.3-0.2,0.6-0.6,0.6h-1.8c-0.3,0-0.6-0.3-0.6-0.6c0-0.3,0.2-0.6,0.5-0.6
				H12.5z M12.5,8C12.8,8,13,8.2,13,8.6c0,0.3-0.2,0.6-0.6,0.6h-1.8c-0.3,0-0.6-0.3-0.6-0.6c0-0.3,0.2-0.6,0.5-0.6H12.5z M12.5,8"/>
		</g>
	</g>
	<path class="st2" d="M5.9,7.4L3,3.5C3,3.3,3,3.1,3.1,3.1C3.2,3,3.3,3,3.3,3h8.1c0.2,0,0.3,0.1,0.3,0.3c0,0.1,0,0.1-0.1,0.2L8.5,7.4
		v5.3c0,0.2-0.1,0.3-0.3,0.3c-0.1,0-0.1,0-0.2-0.1l-2.1-2.4V7.4z"/>
</g>
</svg>
